# xmcd CD database file
#
# Track frame offsets:
#	150
#	14650
#	27525
#	42212
#	52500
#	63087
#	79937
#	93362
#	107575
#	121375
#	135475
#	151987
#	166237
#	179537
#	194425
#	205850
#
# Disc length: 2912 seconds
#
# Revision: 5
# Processed by: cddbd v1.5.1PL0 Copyright (c) Steve Scherf et al.
# Submitted via: CDex 1.51
#
DISCID=cd0b5e10
DTITLE=Canned Heat - On The Road Again
DYEAR=1993
DGENRE=Cult
TTITLE0=On The Road Again
TTITLE1=Going Up The Country
TTITLE2=Dust My Broom
TTITLE3=Bullfrog Blues
TTITLE4=Evil Is Going On
TTITLE5=Going Down Slow
TTITLE6=Boogie Music
TTITLE7=Big Road Blues
TTITLE8=Rolling And Tumbling
TTITLE9=Help Me
TTITLE10=The Story Of My Life
TTITLE11=The Road Song
TTITLE12=Rich Woman
TTITLE13=Time Was
TTITLE14=Sic' Em Pigs
TTITLE15=Same All Over
EXTD=YEAR: 1993
EXTT0=
EXTT1=
EXTT2=
EXTT3=
EXTT4=
EXTT5=
EXTT6=
EXTT7=
EXTT8=
EXTT9=
EXTT10=
EXTT11=
EXTT12=
EXTT13=
EXTT14=
EXTT15=
PLAYORDER=
